<svg xmlns="http://www.w3.org/2000/svg" viewBox="0 0 100 100" role="img" aria-label="Gridec"><defs><linearGradient id="bg" x1="0" y1="0" x2="0.55" y2="1"><stop offset="0" stop-color="#1B3E66"/><stop offset="1" stop-color="#0D2440"/></linearGradient><linearGradient id="f0" x1="0" y1="0" x2="1" y2="0.4"><stop offset="0" stop-color="#ADADAD"/><stop offset="1" stop-color="#7E7E7E"/></linearGradient><linearGradient id="f1" x1="1" y1="0" x2="0" y2="0.4"><stop offset="0" stop-color="#EDEDED"/><stop offset="1" stop-color="#B6B6B6"/></linearGradient><linearGradient id="f2" x1="0.5" y1="0" x2="0.5" y2="1"><stop offset="0" stop-color="#FFFFFF"/><stop offset="1" stop-color="#CFCFCF"/></linearGradient><linearGradient id="sn" x1="0" y1="0" x2="0" y2="1"><stop offset="0" stop-color="#FFFFFF" stop-opacity="0.16"/><stop offset="0.5" stop-color="#FFFFFF" stop-opacity="0"/><stop offset="1" stop-color="#000000" stop-opacity="0.20"/></linearGradient><radialGradient id="vg" cx="0.28" cy="0.22" r="0.95"><stop offset="0" stop-color="#FFFFFF" stop-opacity="0.07"/><stop offset="0.55" stop-color="#000000" stop-opacity="0"/><stop offset="1" stop-color="#000000" stop-opacity="0.22"/></radialGradient><filter id="s0" x="-50%" y="-50%" width="200%" height="200%"><feGaussianBlur stdDeviation="7.28"/></filter><filter id="s1" x="-50%" y="-50%" width="200%" height="200%"><feGaussianBlur stdDeviation="1.96"/></filter></defs><rect width="100" height="100" rx="21.0" fill="url(#bg)"/><g transform="translate(50.0 55.04) scale(0.28)" fill-opacity="0.38" filter="url(#s0)"><path d="M-86.603 -50 L-6 -96.536 L-6 -3.464 L-86.603 43.072 Z"/><path d="M86.603 -50 L6 -96.536 L6 -3.464 L86.603 43.072 Z"/><path d="M-86.603 56.928 L0 6.928 L86.603 56.928 L0 100 Z"/></g><g transform="translate(50.0 51.68) scale(0.28)" fill-opacity="0.45" filter="url(#s1)"><path d="M-86.603 -50 L-6 -96.536 L-6 -3.464 L-86.603 43.072 Z"/><path d="M86.603 -50 L6 -96.536 L6 -3.464 L86.603 43.072 Z"/><path d="M-86.603 56.928 L0 6.928 L86.603 56.928 L0 100 Z"/></g><g transform="translate(50.0 50.0) scale(0.28)"><path fill="url(#f0)" d="M-86.603 -50 L-6 -96.536 L-6 -3.464 L-86.603 43.072 Z"/><path fill="url(#f1)" d="M86.603 -50 L6 -96.536 L6 -3.464 L86.603 43.072 Z"/><path fill="url(#f2)" d="M-86.603 56.928 L0 6.928 L86.603 56.928 L0 100 Z"/><path d="M-86.603 -50 L-6 -96.536" fill="none" stroke="#FFFFFF" stroke-opacity="0.55" stroke-width="2.6" stroke-linecap="round" stroke-linejoin="round"/><path d="M6 -96.536 L86.603 -50" fill="none" stroke="#FFFFFF" stroke-opacity="0.55" stroke-width="2.6" stroke-linecap="round" stroke-linejoin="round"/><path d="M-86.603 56.928 L0 6.928 L86.603 56.928" fill="none" stroke="#FFFFFF" stroke-opacity="0.55" stroke-width="2.6" stroke-linecap="round" stroke-linejoin="round"/></g><rect width="100" height="100" rx="21.0" fill="url(#sn)"/><rect width="100" height="100" rx="21.0" fill="url(#vg)"/></svg>