<svg xmlns="http://www.w3.org/2000/svg" viewBox="-100 -100 200 200" color="#0D2440"><g transform="scale(1.0)" clip-path="url(#mk)"><path fill="none" stroke="currentColor" stroke-opacity="1.0" stroke-width="17.0" stroke-linecap="butt" stroke-linejoin="miter" d="M-64 -56.0 L-45.0 -56.0 L-7.6 -74.4 L164 -246.0"/><path fill="currentColor" fill-opacity="1.0" fill-rule="evenodd" d="M-64 -56.0 m-14.62 0 a14.62 14.62 0 1 0 29.24 0 a14.62 14.62 0 1 0 -29.24 0 M-64 -56.0 m-5.78 0 a5.78 5.78 0 1 1 11.56 0 a5.78 5.78 0 1 1 -11.56 0 Z"/><path fill="none" stroke="#2E5E99" stroke-opacity="1.0" stroke-width="17.0" stroke-linecap="butt" stroke-linejoin="miter" d="M-64 56.0 L-45.0 56.0 L-7.6 37.6 L164 -134.0"/><path fill="#2E5E99" fill-opacity="1.0" fill-rule="evenodd" d="M-64 56.0 m-14.62 0 a14.62 14.62 0 1 0 29.24 0 a14.62 14.62 0 1 0 -29.24 0 M-64 56.0 m-5.78 0 a5.78 5.78 0 1 1 11.56 0 a5.78 5.78 0 1 1 -11.56 0 Z"/></g><defs><clipPath id="mk"><rect x="-100.0" y="-100.0" width="200.0" height="200.0" rx="6"/></clipPath></defs></svg>